<?xml version="1.0" encoding="UTF-8" standalone="no"?>
<!-- Created with Inkscape (http://www.inkscape.org/) -->

<svg
   width="300"
   height="300"
   viewBox="0 0 120 120"
   version="1.1"
   id="svg1"
   sodipodi:docname="todoist-dailies.svg"
   inkscape:version="1.3.2 (091e20ef0f, 2023-11-25, custom)"
   xmlns:inkscape="http://www.inkscape.org/namespaces/inkscape"
   xmlns:sodipodi="http://sodipodi.sourceforge.net/DTD/sodipodi-0.dtd"
   xmlns="http://www.w3.org/2000/svg"
   xmlns:svg="http://www.w3.org/2000/svg">
  <sodipodi:namedview
     id="namedview1"
     pagecolor="#ffffff"
     bordercolor="#999999"
     borderopacity="1"
     inkscape:showpageshadow="2"
     inkscape:pageopacity="0"
     inkscape:pagecheckerboard="0"
     inkscape:deskcolor="#d1d1d1"
     inkscape:document-units="px"
     inkscape:zoom="3.0994847"
     inkscape:cx="-71.302174"
     inkscape:cy="87.595205"
     inkscape:window-width="2516"
     inkscape:window-height="1360"
     inkscape:window-x="0"
     inkscape:window-y="0"
     inkscape:window-maximized="1"
     inkscape:current-layer="g5" />
  <defs
     id="defs1" />
  <g
     inkscape:label="Layer 1"
     inkscape:groupmode="layer"
     id="layer1">
    <g
       id="g5"
       transform="translate(0,-0.82131314)">
      <g
         id="g7"
         transform="translate(4.529953e-6,-5.4149987)">
        <rect
           style="fill:#865e3c;fill-opacity:1;stroke:#6f4d32;stroke-width:7.97862;stroke-dasharray:none;stroke-opacity:1"
           id="rect6"
           width="70.446739"
           height="88.82933"
           x="24.776625"
           y="26.866417"
           ry="7.5388217" />
        <rect
           style="fill:#cdab8f;fill-opacity:1;stroke:#865e3c;stroke-width:7.58351;stroke-dasharray:none;stroke-opacity:1"
           id="rect5"
           width="70.84185"
           height="88.807953"
           x="24.579071"
           y="20.625582"
           ry="7.8290958" />
        <rect
           style="fill:#f5c211;fill-opacity:0.980392;stroke:#865e3c;stroke-width:4.15287;stroke-linejoin:miter;stroke-dasharray:none;stroke-opacity:1"
           id="rect3"
           width="34.717781"
           height="14.099228"
           x="42.641109"
           y="14.864001"
           ry="3.1998627" />
        <path
           id="path7"
           style="fill:#865e3c;fill-opacity:1;stroke:#865e3c;stroke-width:6;stroke-linejoin:miter;stroke-dasharray:none;stroke-opacity:1"
           d="m 41.957026,42.138933 c -0.64184,0 -1.1582,0.516365 -1.1582,1.158203 0,0.641836 0.51636,1.158203 1.1582,1.158203 h 22.34766 c 0.64182,0 1.1582,-0.516367 1.1582,-1.158203 0,-0.641838 -0.51638,-1.158203 -1.1582,-1.158203 z m 0,21.976562 c -0.51504,0 -0.92969,0.414646 -0.92969,0.929688 0,0.515042 0.41465,0.929687 0.92969,0.929687 h 36.31445 c 0.51505,0 0.92969,-0.414645 0.92969,-0.929687 0,-0.515042 -0.41464,-0.929688 -0.92969,-0.929688 z m 0,21.548828 c -0.62507,0 -1.12695,0.501884 -1.12695,1.126953 0,0.62508 0.50188,1.128907 1.12695,1.128907 h 23.84179 c 0.62507,0 1.12891,-0.503827 1.12891,-1.128907 0,-0.625069 -0.50384,-1.126953 -1.12891,-1.126953 z" />
      </g>
      <path
         style="fill:#865e3c;fill-opacity:1;stroke:#865e3c;stroke-width:0;stroke-linejoin:miter;stroke-dasharray:none;stroke-opacity:1"
         id="path8"
         sodipodi:type="arc"
         sodipodi:cx="60.000004"
         sodipodi:cy="16.498617"
         sodipodi:rx="2"
         sodipodi:ry="2"
         sodipodi:start="0"
         sodipodi:end="6.2679794"
         sodipodi:open="true"
         sodipodi:arc-type="arc"
         d="m 62.000004,16.498617 a 2,2 0 0 1 -1.992397,1.999986 2,2 0 0 1 -2.007545,-1.98478 2,2 0 0 1 1.977133,-2.015076 2,2 0 0 1 2.022578,1.96946" />
    </g>
  </g>
</svg>
